<svg width="40" height="40" viewBox="0 0 40 40" fill="none" xmlns="http://www.w3.org/2000/svg">
<path d="M29.9904 0H10.0096C4.48955 0 0 4.68896 0 10.4542V29.5458C0 35.311 4.48955 40 10.0096 40H29.9904C35.5104 40 40 35.311 40 29.5458V10.4542C40 4.68896 35.5104 0 29.9904 0ZM3.53065 10.4542C3.53065 6.72263 6.43674 3.68747 10.0096 3.68747H29.9904C33.5633 3.68747 36.4693 6.72263 36.4693 10.4542V29.5458C36.4693 33.2774 33.5633 36.3125 29.9904 36.3125H10.0096C6.43674 36.3125 3.53065 33.2774 3.53065 29.5458V10.4542Z" fill="white"/>
<path d="M20.0001 29.7238C25.1344 29.7238 29.3117 25.361 29.3117 19.9986C29.3117 14.6362 25.1344 10.2734 20.0001 10.2734C14.8658 10.2734 10.6885 14.6362 10.6885 19.9986C10.6885 25.361 14.8658 29.7238 20.0001 29.7238ZM20.0001 13.9628C23.1872 13.9628 25.7792 16.6699 25.7792 19.9986C25.7792 23.3273 23.1872 26.0344 20.0001 26.0344C16.813 26.0344 14.221 23.3273 14.221 19.9986C14.221 16.6699 16.813 13.9628 20.0001 13.9628Z" fill="white"/>
<path d="M30.1724 11.8431C31.5556 11.8431 32.6817 10.667 32.6817 9.22231C32.6817 7.77764 31.5556 6.60156 30.1724 6.60156C28.7891 6.60156 27.6631 7.77764 27.6631 9.22231C27.6631 10.667 28.7891 11.8431 30.1724 11.8431Z" fill="white"/>
</svg>
