<svg width="22" height="22" viewBox="0 0 22 22" fill="none" xmlns="http://www.w3.org/2000/svg">
<path d="M16.4947 0H5.5053C2.46925 0 0 2.57893 0 5.74982V16.2502C0 19.4211 2.46925 22 5.5053 22H16.4947C19.5307 22 22 19.4211 22 16.2502V5.74982C22 2.57893 19.5307 0 16.4947 0ZM1.94186 5.74982C1.94186 3.69745 3.54021 2.02811 5.5053 2.02811H16.4947C18.4598 2.02811 20.0581 3.69745 20.0581 5.74982V16.2502C20.0581 18.3026 18.4598 19.9719 16.4947 19.9719H5.5053C3.54021 19.9719 1.94186 18.3026 1.94186 16.2502V5.74982Z" fill="black"/>
<path d="M10.9993 16.3481C13.8232 16.3481 16.1207 13.9485 16.1207 10.9992C16.1207 8.04993 13.8232 5.65039 10.9993 5.65039C8.17545 5.65039 5.87793 8.04993 5.87793 10.9992C5.87793 13.9485 8.17545 16.3481 10.9993 16.3481ZM10.9993 7.67955C12.7523 7.67955 14.1778 9.16845 14.1778 10.9992C14.1778 12.83 12.7523 14.3189 10.9993 14.3189C9.2464 14.3189 7.8208 12.83 7.8208 10.9992C7.8208 9.16845 9.2464 7.67955 10.9993 7.67955Z" fill="black"/>
<path d="M16.5959 6.51368C17.3567 6.51368 17.976 5.86684 17.976 5.07227C17.976 4.2777 17.3567 3.63086 16.5959 3.63086C15.8351 3.63086 15.2158 4.2777 15.2158 5.07227C15.2158 5.86684 15.8351 6.51368 16.5959 6.51368Z" fill="black"/>
</svg>
