<svg width="156" height="42" viewBox="0 0 156 42" fill="none" xmlns="http://www.w3.org/2000/svg">
<path d="M53.9998 0.5C47.9219 3.86098 48.5972 9.2377 53.9998 13.9426H14.1555C7.40219 9.90984 8.75281 2.51639 14.1555 0.5H53.9998Z" fill="#9B2814" stroke="#311F16"/>
<path d="M53.9998 28.0574C47.9219 31.4184 48.5972 36.7951 53.9998 41.5H14.1555C7.40219 37.4672 8.75281 30.0738 14.1555 28.0574H53.9998Z" fill="#BFA07A" stroke="#311F16"/>
<path d="M2.00018 14.6147C8.07814 17.9757 7.40282 23.3525 2.00017 28.0574H41.8445C48.5978 24.0246 47.2472 16.6311 41.8445 14.6147H2.00018Z" fill="#0F7C7B" stroke="#311F16"/>
<rect x="35.7656" y="5.20508" width="10.8052" height="4.03279" fill="#311F16"/>
<path d="M35.7656 32.7622H46.5709V36.795H35.7656V32.7622Z" fill="#311F16"/>
<path d="M10.104 19.3198H20.9092V23.3526H10.104V19.3198Z" fill="#311F16"/>
<path d="M67.12 20V8.8H72.848C74.32 8.8 75.4187 9.072 76.144 9.616C76.8693 10.1493 77.232 10.8533 77.232 11.728C77.232 12.304 77.0773 12.8107 76.768 13.248C76.4693 13.6747 76.0427 14.016 75.488 14.272C74.944 14.5173 74.2933 14.64 73.536 14.64L73.856 13.872C74.6453 13.872 75.3333 13.9947 75.92 14.24C76.5067 14.4747 76.96 14.8213 77.28 15.28C77.6107 15.728 77.776 16.2773 77.776 16.928C77.776 17.8987 77.3813 18.656 76.592 19.2C75.8133 19.7333 74.672 20 73.168 20H67.12ZM70.256 17.712H72.912C73.456 17.712 73.8667 17.6213 74.144 17.44C74.432 17.248 74.576 16.96 74.576 16.576C74.576 16.192 74.432 15.9093 74.144 15.728C73.8667 15.536 73.456 15.44 72.912 15.44H70.032V13.248H72.432C72.9653 13.248 73.3653 13.1573 73.632 12.976C73.8987 12.7947 74.032 12.5227 74.032 12.16C74.032 11.7973 73.8987 11.5307 73.632 11.36C73.3653 11.1787 72.9653 11.088 72.432 11.088H70.256V17.712ZM83.6249 20.144C82.6755 20.144 81.8329 19.952 81.0969 19.568C80.3609 19.184 79.7795 18.656 79.3529 17.984C78.9369 17.3013 78.7289 16.5227 78.7289 15.648C78.7289 14.7733 78.9369 14 79.3529 13.328C79.7795 12.656 80.3609 12.1333 81.0969 11.76C81.8329 11.376 82.6755 11.184 83.6249 11.184C84.5742 11.184 85.4169 11.376 86.1529 11.76C86.8995 12.1333 87.4809 12.656 87.8969 13.328C88.3129 14 88.5209 14.7733 88.5209 15.648C88.5209 16.5227 88.3129 17.3013 87.8969 17.984C87.4809 18.656 86.8995 19.184 86.1529 19.568C85.4169 19.952 84.5742 20.144 83.6249 20.144ZM83.6249 17.728C83.9769 17.728 84.2862 17.648 84.5529 17.488C84.8302 17.328 85.0489 17.0933 85.2089 16.784C85.3689 16.464 85.4489 16.0853 85.4489 15.648C85.4489 15.2107 85.3689 14.8427 85.2089 14.544C85.0489 14.2347 84.8302 14 84.5529 13.84C84.2862 13.68 83.9769 13.6 83.6249 13.6C83.2835 13.6 82.9742 13.68 82.6969 13.84C82.4302 14 82.2115 14.2347 82.0409 14.544C81.8809 14.8427 81.8009 15.2107 81.8009 15.648C81.8009 16.0853 81.8809 16.464 82.0409 16.784C82.2115 17.0933 82.4302 17.328 82.6969 17.488C82.9742 17.648 83.2835 17.728 83.6249 17.728ZM94.2811 20.144C93.3318 20.144 92.4891 19.952 91.7531 19.568C91.0171 19.184 90.4358 18.656 90.0091 17.984C89.5931 17.3013 89.3851 16.5227 89.3851 15.648C89.3851 14.7733 89.5931 14 90.0091 13.328C90.4358 12.656 91.0171 12.1333 91.7531 11.76C92.4891 11.376 93.3318 11.184 94.2811 11.184C95.2305 11.184 96.0731 11.376 96.8091 11.76C97.5558 12.1333 98.1371 12.656 98.5531 13.328C98.9691 14 99.1771 14.7733 99.1771 15.648C99.1771 16.5227 98.9691 17.3013 98.5531 17.984C98.1371 18.656 97.5558 19.184 96.8091 19.568C96.0731 19.952 95.2305 20.144 94.2811 20.144ZM94.2811 17.728C94.6331 17.728 94.9425 17.648 95.2091 17.488C95.4865 17.328 95.7051 17.0933 95.8651 16.784C96.0251 16.464 96.1051 16.0853 96.1051 15.648C96.1051 15.2107 96.0251 14.8427 95.8651 14.544C95.7051 14.2347 95.4865 14 95.2091 13.84C94.9425 13.68 94.6331 13.6 94.2811 13.6C93.9398 13.6 93.6305 13.68 93.3531 13.84C93.0865 14 92.8678 14.2347 92.6971 14.544C92.5371 14.8427 92.4571 15.2107 92.4571 15.648C92.4571 16.0853 92.5371 16.464 92.6971 16.784C92.8678 17.0933 93.0865 17.328 93.3531 17.488C93.6305 17.648 93.9398 17.728 94.2811 17.728ZM103.113 18.4L103.193 14.768L106.729 11.328H110.329L106.409 15.376L104.857 16.624L103.113 18.4ZM100.585 20V8.128H103.625V20H100.585ZM106.953 20L104.297 16.672L106.185 14.336L110.633 20H106.953ZM114.082 20V11.312H110.642V8.8H120.674V11.312H117.25V20H114.082ZM121.71 20V11.328H124.75V20H121.71ZM123.23 10.368C122.676 10.368 122.228 10.2133 121.886 9.904C121.545 9.59467 121.374 9.21067 121.374 8.752C121.374 8.29333 121.545 7.90933 121.886 7.6C122.228 7.29067 122.676 7.136 123.23 7.136C123.785 7.136 124.233 7.28533 124.574 7.584C124.916 7.872 125.086 8.24533 125.086 8.704C125.086 9.184 124.916 9.584 124.574 9.904C124.244 10.2133 123.796 10.368 123.23 10.368ZM138.022 11.184C138.694 11.184 139.291 11.3227 139.814 11.6C140.347 11.8667 140.763 12.2827 141.062 12.848C141.371 13.4133 141.526 14.144 141.526 15.04V20H138.486V15.536C138.486 14.9173 138.369 14.4693 138.134 14.192C137.899 13.904 137.579 13.76 137.174 13.76C136.886 13.76 136.625 13.8293 136.39 13.968C136.155 14.1067 135.974 14.32 135.846 14.608C135.718 14.8853 135.654 15.248 135.654 15.696V20H132.614V15.536C132.614 14.9173 132.497 14.4693 132.262 14.192C132.038 13.904 131.718 13.76 131.302 13.76C131.003 13.76 130.737 13.8293 130.502 13.968C130.278 14.1067 130.097 14.32 129.958 14.608C129.83 14.8853 129.766 15.248 129.766 15.696V20H126.726V11.328H129.622V13.744L129.046 13.056C129.366 12.4373 129.803 11.9733 130.358 11.664C130.913 11.344 131.531 11.184 132.214 11.184C132.993 11.184 133.675 11.3867 134.262 11.792C134.859 12.1867 135.259 12.8053 135.462 13.648L134.47 13.44C134.779 12.736 135.243 12.1867 135.862 11.792C136.491 11.3867 137.211 11.184 138.022 11.184ZM148.098 20.144C147.074 20.144 146.178 19.952 145.41 19.568C144.653 19.1733 144.061 18.64 143.634 17.968C143.218 17.2853 143.01 16.512 143.01 15.648C143.01 14.784 143.213 14.016 143.618 13.344C144.034 12.6613 144.605 12.1333 145.33 11.76C146.055 11.376 146.871 11.184 147.778 11.184C148.631 11.184 149.41 11.36 150.114 11.712C150.818 12.0533 151.378 12.56 151.794 13.232C152.21 13.904 152.418 14.72 152.418 15.68C152.418 15.7867 152.413 15.9093 152.402 16.048C152.391 16.1867 152.381 16.3147 152.37 16.432H145.506V14.832H150.754L149.602 15.28C149.613 14.8853 149.538 14.544 149.378 14.256C149.229 13.968 149.015 13.744 148.738 13.584C148.471 13.424 148.157 13.344 147.794 13.344C147.431 13.344 147.111 13.424 146.834 13.584C146.567 13.744 146.359 13.9733 146.21 14.272C146.061 14.56 145.986 14.9013 145.986 15.296V15.76C145.986 16.1867 146.071 16.5547 146.242 16.864C146.423 17.1733 146.679 17.4133 147.01 17.584C147.341 17.744 147.735 17.824 148.194 17.824C148.621 17.824 148.983 17.7653 149.282 17.648C149.591 17.52 149.895 17.328 150.194 17.072L151.794 18.736C151.378 19.1947 150.866 19.5467 150.258 19.792C149.65 20.0267 148.93 20.144 148.098 20.144Z" fill="black"/>
<path d="M67.08 36V30.78H67.58V36H67.08ZM67.33 29.51C67.2167 29.51 67.12 29.47 67.04 29.39C66.96 29.31 66.92 29.2167 66.92 29.11C66.92 28.9967 66.96 28.9 67.04 28.82C67.12 28.74 67.2167 28.7 67.33 28.7C67.45 28.7 67.5467 28.74 67.62 28.82C67.7 28.8933 67.74 28.9867 67.74 29.1C67.74 29.2133 67.7 29.31 67.62 29.39C67.5467 29.47 67.45 29.51 67.33 29.51ZM68.8265 36V30.78H69.3265V33.16H72.8665V30.78H73.3665V36H72.8665V33.6H69.3265V36H68.8265ZM75.5757 36V31.08L75.7157 31.23H73.5357V30.78H78.1157V31.23H75.9357L76.0757 31.08V36H75.5757ZM80.2021 36.04C79.6754 36.04 79.2088 35.9267 78.8021 35.7C78.4021 35.4733 78.0854 35.16 77.8521 34.76C77.6254 34.36 77.5121 33.9033 77.5121 33.39C77.5121 32.87 77.6188 32.4133 77.8321 32.02C78.0521 31.62 78.3521 31.3067 78.7321 31.08C79.1121 30.8533 79.5388 30.74 80.0121 30.74C80.4854 30.74 80.9088 30.85 81.2821 31.07C81.6621 31.29 81.9588 31.6 82.1721 32C82.3921 32.3933 82.5021 32.85 82.5021 33.37C82.5021 33.39 82.4988 33.4133 82.4921 33.44C82.4921 33.46 82.4921 33.4833 82.4921 33.51H77.8821V33.12H82.2221L82.0221 33.31C82.0288 32.9033 81.9421 32.54 81.7621 32.22C81.5888 31.8933 81.3521 31.64 81.0521 31.46C80.7521 31.2733 80.4054 31.18 80.0121 31.18C79.6254 31.18 79.2788 31.2733 78.9721 31.46C78.6721 31.64 78.4354 31.8933 78.2621 32.22C78.0888 32.54 78.0021 32.9067 78.0021 33.32V33.41C78.0021 33.8367 78.0954 34.2167 78.2821 34.55C78.4754 34.8767 78.7388 35.1333 79.0721 35.32C79.4054 35.5 79.7854 35.59 80.2121 35.59C80.5454 35.59 80.8554 35.53 81.1421 35.41C81.4354 35.29 81.6821 35.1067 81.8821 34.86L82.1721 35.19C81.9454 35.47 81.6588 35.6833 81.3121 35.83C80.9721 35.97 80.6021 36.04 80.2021 36.04ZM85.8659 36.04C85.4059 36.04 84.9892 35.9333 84.6159 35.72C84.2492 35.5067 83.9559 35.2033 83.7359 34.81C83.5225 34.41 83.4159 33.9367 83.4159 33.39C83.4159 32.8433 83.5225 32.3733 83.7359 31.98C83.9559 31.58 84.2492 31.2733 84.6159 31.06C84.9892 30.8467 85.4059 30.74 85.8659 30.74C86.3592 30.74 86.7992 30.8533 87.1859 31.08C87.5792 31.3 87.8859 31.61 88.1059 32.01C88.3325 32.41 88.4459 32.87 88.4459 33.39C88.4459 33.91 88.3325 34.37 88.1059 34.77C87.8859 35.17 87.5792 35.4833 87.1859 35.71C86.7992 35.93 86.3592 36.04 85.8659 36.04ZM83.2459 37.94V30.78H83.7259V32.49L83.6459 33.4L83.7459 34.31V37.94H83.2459ZM85.8359 35.59C86.2359 35.59 86.5959 35.5 86.9159 35.32C87.2359 35.1333 87.4859 34.8733 87.6659 34.54C87.8525 34.2067 87.9459 33.8233 87.9459 33.39C87.9459 32.95 87.8525 32.5667 87.6659 32.24C87.4859 31.9067 87.2359 31.65 86.9159 31.47C86.5959 31.2833 86.2359 31.19 85.8359 31.19C85.4359 31.19 85.0759 31.2833 84.7559 31.47C84.4425 31.65 84.1925 31.9067 84.0059 32.24C83.8259 32.5667 83.7359 32.95 83.7359 33.39C83.7359 33.8233 83.8259 34.2067 84.0059 34.54C84.1925 34.8733 84.4425 35.1333 84.7559 35.32C85.0759 35.5 85.4359 35.59 85.8359 35.59ZM89.1718 36V30.78H89.6718V33.16H93.2118V30.78H93.7118V36H93.2118V33.6H89.6718V36H89.1718ZM97.131 36.04C96.6043 36.04 96.1377 35.9267 95.731 35.7C95.331 35.4733 95.0143 35.16 94.781 34.76C94.5543 34.36 94.441 33.9033 94.441 33.39C94.441 32.87 94.5477 32.4133 94.761 32.02C94.981 31.62 95.281 31.3067 95.661 31.08C96.041 30.8533 96.4677 30.74 96.941 30.74C97.4143 30.74 97.8377 30.85 98.211 31.07C98.591 31.29 98.8877 31.6 99.101 32C99.321 32.3933 99.431 32.85 99.431 33.37C99.431 33.39 99.4277 33.4133 99.421 33.44C99.421 33.46 99.421 33.4833 99.421 33.51H94.811V33.12H99.151L98.951 33.31C98.9577 32.9033 98.871 32.54 98.691 32.22C98.5177 31.8933 98.281 31.64 97.981 31.46C97.681 31.2733 97.3343 31.18 96.941 31.18C96.5543 31.18 96.2077 31.2733 95.901 31.46C95.601 31.64 95.3643 31.8933 95.191 32.22C95.0177 32.54 94.931 32.9067 94.931 33.32V33.41C94.931 33.8367 95.0243 34.2167 95.211 34.55C95.4043 34.8767 95.6677 35.1333 96.001 35.32C96.3343 35.5 96.7143 35.59 97.141 35.59C97.4743 35.59 97.7843 35.53 98.071 35.41C98.3643 35.29 98.611 35.1067 98.811 34.86L99.101 35.19C98.8743 35.47 98.5877 35.6833 98.241 35.83C97.901 35.97 97.531 36.04 97.131 36.04ZM100.871 36V31.08L101.011 31.23H98.8306V30.78H103.411V31.23H101.231L101.371 31.08V36H100.871ZM102.857 33.54V33.09H105.427V33.54H102.857ZM106.226 36V30.78H106.716L109.186 34.91H108.966L111.446 30.78H111.906V36H111.446V31.38L111.546 31.42L109.176 35.33H108.946L106.566 31.39L106.686 31.37V36H106.226ZM116.428 36V34.81L116.408 34.63V32.67C116.408 32.1833 116.275 31.8133 116.008 31.56C115.748 31.3067 115.365 31.18 114.858 31.18C114.498 31.18 114.161 31.2433 113.848 31.37C113.541 31.49 113.278 31.6467 113.058 31.84L112.808 31.48C113.068 31.2467 113.381 31.0667 113.748 30.94C114.115 30.8067 114.498 30.74 114.898 30.74C115.545 30.74 116.041 30.9033 116.388 31.23C116.735 31.5567 116.908 32.0433 116.908 32.69V36H116.428ZM114.548 36.04C114.161 36.04 113.825 35.98 113.538 35.86C113.258 35.7333 113.041 35.5567 112.888 35.33C112.741 35.1033 112.668 34.8433 112.668 34.55C112.668 34.2833 112.728 34.0433 112.848 33.83C112.975 33.61 113.181 33.4333 113.468 33.3C113.755 33.16 114.138 33.09 114.618 33.09H116.538V33.48H114.628C114.088 33.48 113.708 33.58 113.488 33.78C113.275 33.98 113.168 34.23 113.168 34.53C113.168 34.8633 113.295 35.13 113.548 35.33C113.801 35.53 114.158 35.63 114.618 35.63C115.058 35.63 115.428 35.53 115.728 35.33C116.035 35.13 116.261 34.84 116.408 34.46L116.548 34.8C116.408 35.18 116.168 35.4833 115.828 35.71C115.495 35.93 115.068 36.04 114.548 36.04ZM118.039 36V30.78H121.609V31.23H118.399L118.539 31.09V36H118.039ZM125.038 36V34.81L125.018 34.63V32.67C125.018 32.1833 124.885 31.8133 124.618 31.56C124.358 31.3067 123.975 31.18 123.468 31.18C123.108 31.18 122.771 31.2433 122.458 31.37C122.151 31.49 121.888 31.6467 121.668 31.84L121.418 31.48C121.678 31.2467 121.991 31.0667 122.358 30.94C122.725 30.8067 123.108 30.74 123.508 30.74C124.155 30.74 124.651 30.9033 124.998 31.23C125.345 31.5567 125.518 32.0433 125.518 32.69V36H125.038ZM123.158 36.04C122.771 36.04 122.435 35.98 122.148 35.86C121.868 35.7333 121.651 35.5567 121.498 35.33C121.351 35.1033 121.278 34.8433 121.278 34.55C121.278 34.2833 121.338 34.0433 121.458 33.83C121.585 33.61 121.791 33.4333 122.078 33.3C122.365 33.16 122.748 33.09 123.228 33.09H125.148V33.48H123.238C122.698 33.48 122.318 33.58 122.098 33.78C121.885 33.98 121.778 34.23 121.778 34.53C121.778 34.8633 121.905 35.13 122.158 35.33C122.411 35.53 122.768 35.63 123.228 35.63C123.668 35.63 124.038 35.53 124.338 35.33C124.645 35.13 124.871 34.84 125.018 34.46L125.158 34.8C125.018 35.18 124.778 35.4833 124.438 35.71C124.105 35.93 123.678 36.04 123.158 36.04ZM127.813 36.05C127.453 36.05 127.089 35.9933 126.723 35.88C126.356 35.7667 126.033 35.5933 125.753 35.36L125.943 34.99C126.196 35.2033 126.489 35.3633 126.823 35.47C127.156 35.57 127.489 35.6167 127.823 35.61C128.163 35.61 128.459 35.56 128.713 35.46C128.973 35.36 129.173 35.2233 129.313 35.05C129.453 34.8767 129.523 34.6833 129.523 34.47C129.523 34.1567 129.383 33.9133 129.103 33.74C128.823 33.5667 128.439 33.48 127.953 33.48H127.113V33.1H127.933C128.213 33.1 128.459 33.0633 128.673 32.99C128.893 32.9167 129.063 32.81 129.183 32.67C129.309 32.5233 129.373 32.3533 129.373 32.16C129.373 31.9467 129.299 31.7667 129.153 31.62C129.013 31.4667 128.819 31.3533 128.573 31.28C128.333 31.2067 128.063 31.17 127.763 31.17C127.503 31.1767 127.233 31.2167 126.953 31.29C126.679 31.3633 126.409 31.4733 126.143 31.62L125.983 31.22C126.276 31.06 126.573 30.94 126.873 30.86C127.173 30.78 127.476 30.7367 127.783 30.73C128.169 30.7233 128.523 30.7767 128.843 30.89C129.163 30.9967 129.416 31.1533 129.603 31.36C129.789 31.56 129.883 31.8033 129.883 32.09C129.883 32.35 129.803 32.5767 129.643 32.77C129.489 32.9567 129.276 33.1033 129.003 33.21C128.736 33.3167 128.436 33.37 128.103 33.37L128.143 33.21C128.743 33.21 129.206 33.3267 129.533 33.56C129.866 33.7933 130.033 34.1067 130.033 34.5C130.033 34.8133 129.933 35.0867 129.733 35.32C129.533 35.5533 129.263 35.7333 128.923 35.86C128.589 35.9867 128.219 36.05 127.813 36.05ZM130.886 36V30.78H131.386V35.23L135.106 30.78H135.546V36H135.046V31.55L131.326 36H130.886ZM136.803 36V30.78H137.303V33.16H140.843V30.78H141.343V36H140.843V33.6H137.303V36H136.803Z" fill="black"/>
</svg>
