<svg width="154" height="61" viewBox="0 0 154 61" fill="none" xmlns="http://www.w3.org/2000/svg">
<path d="M53.5007 10C47.481 13.3446 48.1499 18.6951 53.5007 23.377H14.0384C7.34986 19.3639 8.68753 12.0066 14.0384 10H53.5007Z" fill="#9B2814" stroke="#311F16"/>
<path d="M53.5007 37.423C47.481 40.7676 48.1499 46.1181 53.5007 50.8H14.0384C7.34986 46.7869 8.68753 39.4295 14.0384 37.423H53.5007Z" fill="#BFA07A" stroke="#311F16"/>
<path d="M1.99979 24.0459C8.01946 27.3905 7.35062 32.741 1.99977 37.4229H41.4621C48.1506 33.4098 46.813 26.0525 41.4621 24.0459H1.99979Z" fill="#0F7C7B" stroke="#311F16"/>
<rect x="35.4424" y="14.682" width="10.7016" height="4.01311" fill="#311F16"/>
<path d="M35.4424 42.105H46.144V46.1181H35.4424V42.105Z" fill="#311F16"/>
<path d="M10.0259 28.7279H20.7275V32.741H10.0259V28.7279Z" fill="#311F16"/>
<path d="M64.6205 29.4V18.2H70.3485C71.8205 18.2 72.9192 18.472 73.6445 19.016C74.3698 19.5494 74.7325 20.2534 74.7325 21.128C74.7325 21.704 74.5778 22.2107 74.2685 22.648C73.9698 23.0747 73.5432 23.416 72.9885 23.672C72.4445 23.9174 71.7938 24.04 71.0365 24.04L71.3565 23.272C72.1458 23.272 72.8338 23.3947 73.4205 23.64C74.0072 23.8747 74.4605 24.2214 74.7805 24.68C75.1112 25.128 75.2765 25.6774 75.2765 26.328C75.2765 27.2987 74.8818 28.056 74.0925 28.6C73.3138 29.1334 72.1725 29.4 70.6685 29.4H64.6205ZM67.7565 27.112H70.4125C70.9565 27.112 71.3672 27.0214 71.6445 26.84C71.9325 26.648 72.0765 26.36 72.0765 25.976C72.0765 25.592 71.9325 25.3094 71.6445 25.128C71.3672 24.936 70.9565 24.84 70.4125 24.84H67.5325V22.648H69.9325C70.4658 22.648 70.8658 22.5574 71.1325 22.376C71.3992 22.1947 71.5325 21.9227 71.5325 21.56C71.5325 21.1974 71.3992 20.9307 71.1325 20.76C70.8658 20.5787 70.4658 20.488 69.9325 20.488H67.7565V27.112ZM81.1254 29.544C80.176 29.544 79.3334 29.352 78.5974 28.968C77.8614 28.584 77.28 28.056 76.8534 27.384C76.4374 26.7014 76.2294 25.9227 76.2294 25.048C76.2294 24.1734 76.4374 23.4 76.8534 22.728C77.28 22.056 77.8614 21.5334 78.5974 21.16C79.3334 20.776 80.176 20.584 81.1254 20.584C82.0747 20.584 82.9174 20.776 83.6534 21.16C84.4 21.5334 84.9814 22.056 85.3974 22.728C85.8134 23.4 86.0214 24.1734 86.0214 25.048C86.0214 25.9227 85.8134 26.7014 85.3974 27.384C84.9814 28.056 84.4 28.584 83.6534 28.968C82.9174 29.352 82.0747 29.544 81.1254 29.544ZM81.1254 27.128C81.4774 27.128 81.7867 27.048 82.0534 26.888C82.3307 26.728 82.5494 26.4934 82.7094 26.184C82.8694 25.864 82.9494 25.4854 82.9494 25.048C82.9494 24.6107 82.8694 24.2427 82.7094 23.944C82.5494 23.6347 82.3307 23.4 82.0534 23.24C81.7867 23.08 81.4774 23 81.1254 23C80.784 23 80.4747 23.08 80.1974 23.24C79.9307 23.4 79.712 23.6347 79.5414 23.944C79.3814 24.2427 79.3014 24.6107 79.3014 25.048C79.3014 25.4854 79.3814 25.864 79.5414 26.184C79.712 26.4934 79.9307 26.728 80.1974 26.888C80.4747 27.048 80.784 27.128 81.1254 27.128ZM91.7816 29.544C90.8323 29.544 89.9896 29.352 89.2536 28.968C88.5176 28.584 87.9363 28.056 87.5096 27.384C87.0936 26.7014 86.8856 25.9227 86.8856 25.048C86.8856 24.1734 87.0936 23.4 87.5096 22.728C87.9363 22.056 88.5176 21.5334 89.2536 21.16C89.9896 20.776 90.8323 20.584 91.7816 20.584C92.7309 20.584 93.5736 20.776 94.3096 21.16C95.0563 21.5334 95.6376 22.056 96.0536 22.728C96.4696 23.4 96.6776 24.1734 96.6776 25.048C96.6776 25.9227 96.4696 26.7014 96.0536 27.384C95.6376 28.056 95.0563 28.584 94.3096 28.968C93.5736 29.352 92.7309 29.544 91.7816 29.544ZM91.7816 27.128C92.1336 27.128 92.4429 27.048 92.7096 26.888C92.9869 26.728 93.2056 26.4934 93.3656 26.184C93.5256 25.864 93.6056 25.4854 93.6056 25.048C93.6056 24.6107 93.5256 24.2427 93.3656 23.944C93.2056 23.6347 92.9869 23.4 92.7096 23.24C92.4429 23.08 92.1336 23 91.7816 23C91.4403 23 91.1309 23.08 90.8536 23.24C90.5869 23.4 90.3683 23.6347 90.1976 23.944C90.0376 24.2427 89.9576 24.6107 89.9576 25.048C89.9576 25.4854 90.0376 25.864 90.1976 26.184C90.3683 26.4934 90.5869 26.728 90.8536 26.888C91.1309 27.048 91.4403 27.128 91.7816 27.128ZM100.614 27.8L100.694 24.168L104.23 20.728H107.83L103.91 24.776L102.358 26.024L100.614 27.8ZM98.0859 29.4V17.528H101.126V29.4H98.0859ZM104.454 29.4L101.798 26.072L103.686 23.736L108.134 29.4H104.454ZM111.583 29.4V20.712H108.143V18.2H118.175V20.712H114.751V29.4H111.583ZM119.211 29.4V20.728H122.251V29.4H119.211ZM120.731 19.768C120.176 19.768 119.728 19.6134 119.387 19.304C119.046 18.9947 118.875 18.6107 118.875 18.152C118.875 17.6934 119.046 17.3094 119.387 17C119.728 16.6907 120.176 16.536 120.731 16.536C121.286 16.536 121.734 16.6854 122.075 16.984C122.416 17.272 122.587 17.6454 122.587 18.104C122.587 18.584 122.416 18.984 122.075 19.304C121.744 19.6134 121.296 19.768 120.731 19.768ZM135.522 20.584C136.194 20.584 136.792 20.7227 137.314 21C137.848 21.2667 138.264 21.6827 138.562 22.248C138.872 22.8134 139.026 23.544 139.026 24.44V29.4H135.986V24.936C135.986 24.3174 135.869 23.8694 135.634 23.592C135.4 23.304 135.08 23.16 134.674 23.16C134.386 23.16 134.125 23.2294 133.89 23.368C133.656 23.5067 133.474 23.72 133.346 24.008C133.218 24.2854 133.154 24.648 133.154 25.096V29.4H130.114V24.936C130.114 24.3174 129.997 23.8694 129.762 23.592C129.538 23.304 129.218 23.16 128.802 23.16C128.504 23.16 128.237 23.2294 128.002 23.368C127.778 23.5067 127.597 23.72 127.458 24.008C127.33 24.2854 127.266 24.648 127.266 25.096V29.4H124.226V20.728H127.122V23.144L126.546 22.456C126.866 21.8374 127.304 21.3734 127.858 21.064C128.413 20.744 129.032 20.584 129.714 20.584C130.493 20.584 131.176 20.7867 131.762 21.192C132.36 21.5867 132.76 22.2054 132.962 23.048L131.97 22.84C132.28 22.136 132.744 21.5867 133.362 21.192C133.992 20.7867 134.712 20.584 135.522 20.584ZM145.599 29.544C144.575 29.544 143.679 29.352 142.911 28.968C142.153 28.5734 141.561 28.04 141.135 27.368C140.719 26.6854 140.511 25.912 140.511 25.048C140.511 24.184 140.713 23.416 141.119 22.744C141.535 22.0614 142.105 21.5334 142.831 21.16C143.556 20.776 144.372 20.584 145.279 20.584C146.132 20.584 146.911 20.76 147.615 21.112C148.319 21.4534 148.879 21.96 149.295 22.632C149.711 23.304 149.919 24.12 149.919 25.08C149.919 25.1867 149.913 25.3094 149.903 25.448C149.892 25.5867 149.881 25.7147 149.871 25.832H143.007V24.232H148.255L147.103 24.68C147.113 24.2854 147.039 23.944 146.879 23.656C146.729 23.368 146.516 23.144 146.239 22.984C145.972 22.824 145.657 22.744 145.295 22.744C144.932 22.744 144.612 22.824 144.335 22.984C144.068 23.144 143.86 23.3734 143.711 23.672C143.561 23.96 143.487 24.3014 143.487 24.696V25.16C143.487 25.5867 143.572 25.9547 143.743 26.264C143.924 26.5734 144.18 26.8134 144.511 26.984C144.841 27.144 145.236 27.224 145.695 27.224C146.121 27.224 146.484 27.1654 146.783 27.048C147.092 26.92 147.396 26.728 147.695 26.472L149.295 28.136C148.879 28.5947 148.367 28.9467 147.759 29.192C147.151 29.4267 146.431 29.544 145.599 29.544Z" fill="black"/>
<path d="M64.5805 45.4V40.18H65.0805V45.4H64.5805ZM64.8305 38.91C64.7172 38.91 64.6205 38.87 64.5405 38.79C64.4605 38.71 64.4205 38.6167 64.4205 38.51C64.4205 38.3967 64.4605 38.3 64.5405 38.22C64.6205 38.14 64.7172 38.1 64.8305 38.1C64.9505 38.1 65.0472 38.14 65.1205 38.22C65.2005 38.2934 65.2405 38.3867 65.2405 38.5C65.2405 38.6134 65.2005 38.71 65.1205 38.79C65.0472 38.87 64.9505 38.91 64.8305 38.91ZM66.327 45.4V40.18H66.827V42.56H70.367V40.18H70.867V45.4H70.367V43H66.827V45.4H66.327ZM73.0762 45.4V40.48L73.2162 40.63H71.0362V40.18H75.6162V40.63H73.4362L73.5762 40.48V45.4H73.0762ZM77.7026 45.44C77.1759 45.44 76.7093 45.3267 76.3026 45.1C75.9026 44.8734 75.5859 44.56 75.3526 44.16C75.1259 43.76 75.0126 43.3034 75.0126 42.79C75.0126 42.27 75.1193 41.8134 75.3326 41.42C75.5526 41.02 75.8526 40.7067 76.2326 40.48C76.6126 40.2534 77.0393 40.14 77.5126 40.14C77.9859 40.14 78.4093 40.25 78.7826 40.47C79.1626 40.69 79.4593 41 79.6726 41.4C79.8926 41.7934 80.0026 42.25 80.0026 42.77C80.0026 42.79 79.9993 42.8134 79.9926 42.84C79.9926 42.86 79.9926 42.8834 79.9926 42.91H75.3826V42.52H79.7226L79.5226 42.71C79.5293 42.3034 79.4426 41.94 79.2626 41.62C79.0893 41.2934 78.8526 41.04 78.5526 40.86C78.2526 40.6734 77.9059 40.58 77.5126 40.58C77.1259 40.58 76.7793 40.6734 76.4726 40.86C76.1726 41.04 75.9359 41.2934 75.7626 41.62C75.5893 41.94 75.5026 42.3067 75.5026 42.72V42.81C75.5026 43.2367 75.5959 43.6167 75.7826 43.95C75.9759 44.2767 76.2393 44.5334 76.5726 44.72C76.9059 44.9 77.2859 44.99 77.7126 44.99C78.0459 44.99 78.3559 44.93 78.6426 44.81C78.9359 44.69 79.1826 44.5067 79.3826 44.26L79.6726 44.59C79.4459 44.87 79.1593 45.0834 78.8126 45.23C78.4726 45.37 78.1026 45.44 77.7026 45.44ZM83.3663 45.44C82.9063 45.44 82.4897 45.3334 82.1163 45.12C81.7497 44.9067 81.4563 44.6034 81.2363 44.21C81.023 43.81 80.9163 43.3367 80.9163 42.79C80.9163 42.2434 81.023 41.7734 81.2363 41.38C81.4563 40.98 81.7497 40.6734 82.1163 40.46C82.4897 40.2467 82.9063 40.14 83.3663 40.14C83.8597 40.14 84.2997 40.2534 84.6863 40.48C85.0797 40.7 85.3863 41.01 85.6063 41.41C85.833 41.81 85.9463 42.27 85.9463 42.79C85.9463 43.31 85.833 43.77 85.6063 44.17C85.3863 44.57 85.0797 44.8834 84.6863 45.11C84.2997 45.33 83.8597 45.44 83.3663 45.44ZM80.7463 47.34V40.18H81.2263V41.89L81.1463 42.8L81.2463 43.71V47.34H80.7463ZM83.3363 44.99C83.7363 44.99 84.0963 44.9 84.4163 44.72C84.7363 44.5334 84.9863 44.2734 85.1663 43.94C85.353 43.6067 85.4463 43.2234 85.4463 42.79C85.4463 42.35 85.353 41.9667 85.1663 41.64C84.9863 41.3067 84.7363 41.05 84.4163 40.87C84.0963 40.6834 83.7363 40.59 83.3363 40.59C82.9363 40.59 82.5763 40.6834 82.2563 40.87C81.943 41.05 81.693 41.3067 81.5063 41.64C81.3263 41.9667 81.2363 42.35 81.2363 42.79C81.2363 43.2234 81.3263 43.6067 81.5063 43.94C81.693 44.2734 81.943 44.5334 82.2563 44.72C82.5763 44.9 82.9363 44.99 83.3363 44.99ZM86.6723 45.4V40.18H87.1723V42.56H90.7123V40.18H91.2123V45.4H90.7123V43H87.1723V45.4H86.6723ZM94.6315 45.44C94.1048 45.44 93.6382 45.3267 93.2315 45.1C92.8315 44.8734 92.5148 44.56 92.2815 44.16C92.0548 43.76 91.9415 43.3034 91.9415 42.79C91.9415 42.27 92.0482 41.8134 92.2615 41.42C92.4815 41.02 92.7815 40.7067 93.1615 40.48C93.5415 40.2534 93.9682 40.14 94.4415 40.14C94.9148 40.14 95.3382 40.25 95.7115 40.47C96.0915 40.69 96.3882 41 96.6015 41.4C96.8215 41.7934 96.9315 42.25 96.9315 42.77C96.9315 42.79 96.9282 42.8134 96.9215 42.84C96.9215 42.86 96.9215 42.8834 96.9215 42.91H92.3115V42.52H96.6515L96.4515 42.71C96.4582 42.3034 96.3715 41.94 96.1915 41.62C96.0182 41.2934 95.7815 41.04 95.4815 40.86C95.1815 40.6734 94.8348 40.58 94.4415 40.58C94.0548 40.58 93.7082 40.6734 93.4015 40.86C93.1015 41.04 92.8648 41.2934 92.6915 41.62C92.5182 41.94 92.4315 42.3067 92.4315 42.72V42.81C92.4315 43.2367 92.5248 43.6167 92.7115 43.95C92.9048 44.2767 93.1682 44.5334 93.5015 44.72C93.8348 44.9 94.2148 44.99 94.6415 44.99C94.9748 44.99 95.2848 44.93 95.5715 44.81C95.8648 44.69 96.1115 44.5067 96.3115 44.26L96.6015 44.59C96.3748 44.87 96.0882 45.0834 95.7415 45.23C95.4015 45.37 95.0315 45.44 94.6315 45.44ZM98.3711 45.4V40.48L98.5111 40.63H96.3311V40.18H100.911V40.63H98.7311L98.8711 40.48V45.4H98.3711ZM100.358 42.94V42.49H102.928V42.94H100.358ZM103.727 45.4V40.18H104.217L106.687 44.31H106.467L108.947 40.18H109.407V45.4H108.947V40.78L109.047 40.82L106.677 44.73H106.447L104.067 40.79L104.187 40.77V45.4H103.727ZM113.928 45.4V44.21L113.908 44.03V42.07C113.908 41.5834 113.775 41.2134 113.508 40.96C113.248 40.7067 112.865 40.58 112.358 40.58C111.998 40.58 111.662 40.6434 111.348 40.77C111.042 40.89 110.778 41.0467 110.558 41.24L110.308 40.88C110.568 40.6467 110.882 40.4667 111.248 40.34C111.615 40.2067 111.998 40.14 112.398 40.14C113.045 40.14 113.542 40.3034 113.888 40.63C114.235 40.9567 114.408 41.4434 114.408 42.09V45.4H113.928ZM112.048 45.44C111.662 45.44 111.325 45.38 111.038 45.26C110.758 45.1334 110.542 44.9567 110.388 44.73C110.242 44.5034 110.168 44.2434 110.168 43.95C110.168 43.6834 110.228 43.4434 110.348 43.23C110.475 43.01 110.682 42.8334 110.968 42.7C111.255 42.56 111.638 42.49 112.118 42.49H114.038V42.88H112.128C111.588 42.88 111.208 42.98 110.988 43.18C110.775 43.38 110.668 43.63 110.668 43.93C110.668 44.2634 110.795 44.53 111.048 44.73C111.302 44.93 111.658 45.03 112.118 45.03C112.558 45.03 112.928 44.93 113.228 44.73C113.535 44.53 113.762 44.24 113.908 43.86L114.048 44.2C113.908 44.58 113.668 44.8834 113.328 45.11C112.995 45.33 112.568 45.44 112.048 45.44ZM115.54 45.4V40.18H119.11V40.63H115.9L116.04 40.49V45.4H115.54ZM122.539 45.4V44.21L122.519 44.03V42.07C122.519 41.5834 122.385 41.2134 122.119 40.96C121.859 40.7067 121.475 40.58 120.969 40.58C120.609 40.58 120.272 40.6434 119.959 40.77C119.652 40.89 119.389 41.0467 119.169 41.24L118.919 40.88C119.179 40.6467 119.492 40.4667 119.859 40.34C120.225 40.2067 120.609 40.14 121.009 40.14C121.655 40.14 122.152 40.3034 122.499 40.63C122.845 40.9567 123.019 41.4434 123.019 42.09V45.4H122.539ZM120.659 45.44C120.272 45.44 119.935 45.38 119.649 45.26C119.369 45.1334 119.152 44.9567 118.999 44.73C118.852 44.5034 118.779 44.2434 118.779 43.95C118.779 43.6834 118.839 43.4434 118.959 43.23C119.085 43.01 119.292 42.8334 119.579 42.7C119.865 42.56 120.249 42.49 120.729 42.49H122.649V42.88H120.739C120.199 42.88 119.819 42.98 119.599 43.18C119.385 43.38 119.279 43.63 119.279 43.93C119.279 44.2634 119.405 44.53 119.659 44.73C119.912 44.93 120.269 45.03 120.729 45.03C121.169 45.03 121.539 44.93 121.839 44.73C122.145 44.53 122.372 44.24 122.519 43.86L122.659 44.2C122.519 44.58 122.279 44.8834 121.939 45.11C121.605 45.33 121.179 45.44 120.659 45.44ZM125.313 45.45C124.953 45.45 124.59 45.3934 124.223 45.28C123.856 45.1667 123.533 44.9934 123.253 44.76L123.443 44.39C123.696 44.6034 123.99 44.7634 124.323 44.87C124.656 44.97 124.99 45.0167 125.323 45.01C125.663 45.01 125.96 44.96 126.213 44.86C126.473 44.76 126.673 44.6234 126.813 44.45C126.953 44.2767 127.023 44.0834 127.023 43.87C127.023 43.5567 126.883 43.3134 126.603 43.14C126.323 42.9667 125.94 42.88 125.453 42.88H124.613V42.5H125.433C125.713 42.5 125.96 42.4634 126.173 42.39C126.393 42.3167 126.563 42.21 126.683 42.07C126.81 41.9234 126.873 41.7534 126.873 41.56C126.873 41.3467 126.8 41.1667 126.653 41.02C126.513 40.8667 126.32 40.7534 126.073 40.68C125.833 40.6067 125.563 40.57 125.263 40.57C125.003 40.5767 124.733 40.6167 124.453 40.69C124.18 40.7634 123.91 40.8734 123.643 41.02L123.483 40.62C123.776 40.46 124.073 40.34 124.373 40.26C124.673 40.18 124.976 40.1367 125.283 40.13C125.67 40.1234 126.023 40.1767 126.343 40.29C126.663 40.3967 126.916 40.5534 127.103 40.76C127.29 40.96 127.383 41.2034 127.383 41.49C127.383 41.75 127.303 41.9767 127.143 42.17C126.99 42.3567 126.776 42.5034 126.503 42.61C126.236 42.7167 125.936 42.77 125.603 42.77L125.643 42.61C126.243 42.61 126.706 42.7267 127.033 42.96C127.366 43.1934 127.533 43.5067 127.533 43.9C127.533 44.2134 127.433 44.4867 127.233 44.72C127.033 44.9534 126.763 45.1334 126.423 45.26C126.09 45.3867 125.72 45.45 125.313 45.45ZM128.387 45.4V40.18H128.887V44.63L132.607 40.18H133.047V45.4H132.547V40.95L128.827 45.4H128.387ZM134.303 45.4V40.18H134.803V42.56H138.343V40.18H138.843V45.4H138.343V43H134.803V45.4H134.303Z" fill="black"/>
</svg>
