<svg width="31" height="26" viewBox="0 0 31 26" fill="none" xmlns="http://www.w3.org/2000/svg">
<path d="M22.5 15.2549H21.71L21.43 14.9849C22.41 13.8449 23 12.3649 23 10.7549C23 7.16488 20.09 4.25488 16.5 4.25488C12.91 4.25488 10 7.16488 10 10.7549C10 14.3449 12.91 17.2549 16.5 17.2549C18.11 17.2549 19.59 16.6649 20.73 15.6849L21 15.9649V16.7549L26 21.7449L27.49 20.2549L22.5 15.2549ZM16.5 15.2549C14.01 15.2549 12 13.2449 12 10.7549C12 8.26488 14.01 6.25488 16.5 6.25488C18.99 6.25488 21 8.26488 21 10.7549C21 13.2449 18.99 15.2549 16.5 15.2549Z" fill="#646464"/>
</svg>
