<svg width="40" height="40" viewBox="0 0 40 40" fill="none" xmlns="http://www.w3.org/2000/svg">
<path d="M1.04432 18.2356C1.1357 18.1793 1.22707 18.1275 1.31845 18.0779C2.87562 17.2059 4.45331 16.3903 6.02913 15.5746C6.11491 15.5746 6.25849 15.4575 6.33681 15.4146C6.45803 15.3516 6.57924 15.2885 6.70232 15.2254C6.93543 15.1037 7.17041 14.9843 7.40352 14.8626C7.8716 14.6215 8.33782 14.3804 8.80591 14.1371C9.74021 13.6549 10.6764 13.1705 11.6107 12.6883C13.4812 11.7217 15.3516 10.7551 17.2221 9.78845C19.0926 8.82184 20.963 7.85522 22.8335 6.88861C24.704 5.92199 26.5745 4.95538 28.4449 3.98876C30.3154 3.02215 32.1859 2.05553 34.0564 1.08891C34.4722 0.874862 34.9235 0.550391 35.3673 0.455757C35.7422 0.376896 36.1077 0.219188 36.4826 0.133567C37.1968 -0.0309151 37.9857 -0.0985249 38.6682 0.259731C38.905 0.383656 39.1213 0.559416 39.306 0.777974C40.1731 1.81669 40.0519 3.52008 39.8692 4.98014C38.5899 15.1555 37.3105 25.3287 36.0294 35.504C35.8541 36.8988 35.6173 38.4309 34.7035 39.3119C33.9314 40.0577 32.833 40.1433 31.8819 39.8256C30.9289 39.5079 30.0879 38.8387 29.2636 38.1786C25.8434 35.4432 22.4232 32.7056 19.003 29.9702C18.19 29.319 17.2855 28.4718 17.2948 27.2934C17.3004 26.5837 17.651 25.9505 18.0091 25.3872C20.9798 20.7051 25.2709 17.4853 28.4599 13.0173C28.9093 12.3886 29.2636 11.2485 28.6464 10.8857C28.279 10.6694 27.8556 10.9624 27.5218 11.244C23.3053 14.7837 19.0888 18.3235 14.8724 21.861C13.4961 23.0146 12.0545 24.2043 10.3967 24.4882C8.91408 24.7428 7.42033 24.2449 5.98437 23.7334C4.78153 23.3053 3.58054 22.8682 2.38329 22.4153C1.74736 22.1764 1.09091 21.9196 0.598587 21.3766C0.106259 20.8358 -0.175348 19.9255 0.121168 19.2045C0.30579 18.7516 0.667615 18.4655 1.04618 18.2334L1.04432 18.2356Z" fill="white"/>
</svg>
