<svg width="22" height="22" viewBox="0 0 22 22" fill="none" xmlns="http://www.w3.org/2000/svg">
<path d="M0.574375 10.0296C0.624633 9.99862 0.674889 9.97011 0.725147 9.94284C1.58159 9.46325 2.44932 9.01464 3.31602 8.56604C3.3632 8.56604 3.44217 8.5016 3.48525 8.47805C3.55192 8.44336 3.61858 8.40866 3.68628 8.37396C3.81449 8.30704 3.94372 8.24136 4.07194 8.17444C4.32938 8.04184 4.5858 7.90923 4.84325 7.77539C5.35712 7.51019 5.87201 7.24376 6.38588 6.97856C7.41464 6.44692 8.44341 5.91529 9.47217 5.38365C10.5009 4.85201 11.5297 4.32037 12.5584 3.78873C13.5872 3.25709 14.616 2.72546 15.6447 2.19382C16.6735 1.66218 17.7022 1.13054 18.731 0.598903C18.9597 0.481174 19.2079 0.302715 19.452 0.250666C19.6582 0.207293 19.8592 0.120554 20.0654 0.073462C20.4582 -0.0170033 20.8921 -0.0541887 21.2675 0.142852C21.3978 0.211011 21.5167 0.307679 21.6183 0.427886C22.0952 0.99918 22.0286 1.93604 21.928 2.73908C21.2244 8.33553 20.5208 13.9308 19.8162 19.5272C19.7197 20.2943 19.5895 21.137 19.0869 21.6216C18.6623 22.0317 18.0581 22.0788 17.535 21.9041C17.0109 21.7294 16.5483 21.3613 16.095 20.9982C14.2139 19.4938 12.3328 17.9881 10.4517 16.4836C10.0045 16.1255 9.50703 15.6595 9.51216 15.0114C9.51523 14.621 9.70807 14.2728 9.905 13.963C11.5389 11.3878 13.899 9.61692 15.6529 7.15949C15.9001 6.81374 16.095 6.18668 15.7555 5.98716C15.5534 5.86819 15.3206 6.02929 15.137 6.1842C12.8179 8.13106 10.4989 10.0779 8.1798 12.0235C7.42284 12.658 6.62999 13.3124 5.71816 13.4685C4.90274 13.6086 4.08118 13.3347 3.29141 13.0534C2.62984 12.8179 1.9693 12.5775 1.31081 12.3284C0.96105 12.197 0.600003 12.0558 0.329223 11.7571C0.0584427 11.4597 -0.0964413 10.959 0.0666422 10.5625C0.168185 10.3134 0.367188 10.156 0.575401 10.0284L0.574375 10.0296Z" fill="black"/>
</svg>
