<svg width="26" height="22" viewBox="0 0 26 22" fill="none" xmlns="http://www.w3.org/2000/svg">
<path d="M26 2.24868C25.3896 2.91848 24.5436 3.33246 23.6065 3.33246C23.4875 3.33246 23.3685 3.32558 23.2532 3.31183C24.2309 2.67504 24.9856 1.67792 25.3617 0.488245L25.363 0.486869C25.4149 0.327329 25.4592 0.166417 25.4947 0C24.7209 0.8981 23.6635 1.506 22.4769 1.65041C22.2945 1.67379 22.1097 1.6848 21.9222 1.6848C21.8627 1.6848 21.8057 1.68342 21.7487 1.67929C21.3473 1.2213 20.8686 0.843084 20.338 0.565264C19.7466 0.251686 19.0855 0.0673887 18.3878 0.0440078C18.3308 0.0398818 18.2738 0.0385095 18.2143 0.0385095C17.6229 0.0385095 17.0556 0.152661 16.5313 0.363089C16.3971 0.416727 16.2666 0.47449 16.1387 0.541882C14.4772 1.38772 13.3273 3.22105 13.3273 5.34596C13.3273 5.78194 13.3767 6.20555 13.4666 6.6099C12.9576 6.5879 12.4535 6.53426 11.9597 6.45449C11.8014 6.42698 11.643 6.3981 11.486 6.36509C10.226 6.11065 9.0242 5.67329 7.90725 5.07914C6.90808 4.54826 5.97603 3.8936 5.12883 3.13166C4.41586 2.4935 3.76369 1.78107 3.18115 1.00262C3.15583 0.969614 3.13046 0.935233 3.1064 0.902225C3.0722 0.958614 3.04054 1.015 3.01142 1.07414C2.60364 1.84846 2.37316 2.74381 2.37316 3.6983C2.37316 3.72718 2.37319 3.75881 2.37446 3.78769C2.38459 4.50287 2.52388 5.18367 2.77335 5.80257C2.87973 6.07764 3.00887 6.33758 3.15704 6.58377C3.59394 7.31408 4.19043 7.92198 4.89454 8.34283C4.9262 8.36484 4.95912 8.38272 4.99205 8.39922C4.94139 8.41022 4.88945 8.41985 4.83752 8.42535C4.69316 8.44598 4.54373 8.45699 4.39429 8.45699C3.6446 8.45699 2.94683 8.20255 2.37569 7.76932C2.3719 7.8147 2.37192 7.86146 2.37192 7.90823C2.37192 9.42386 2.95699 10.7909 3.89411 11.7551C4.62354 12.5115 5.56696 13.019 6.61552 13.1675C6.23814 13.3175 5.83039 13.3986 5.40616 13.3986C4.94646 13.3986 4.50576 13.3037 4.10305 13.129C4.70331 15.2484 6.4927 16.8026 8.62528 16.8713C7.32218 18.3416 5.49226 19.2548 3.46733 19.2548C2.20855 19.2548 1.02577 18.9013 0 18.2824C2.46564 20.5999 5.68095 22 9.19768 22C16.9694 22 23.2684 15.159 23.2684 6.71855C23.2684 6.25368 23.2494 5.79432 23.2114 5.34046C24.4968 4.78895 25.5162 3.66254 25.9987 2.25006L26 2.24868Z" fill="black"/>
</svg>
