<svg width="48" height="40" viewBox="0 0 48 40" fill="none" xmlns="http://www.w3.org/2000/svg">
<path d="M47.333 4.08852C46.2296 5.30632 44.7003 6.05901 43.0063 6.05901C42.7911 6.05901 42.576 6.04651 42.3677 6.0215C44.135 4.86371 45.4993 3.05076 46.1792 0.887719L46.1815 0.885216C46.2753 0.595143 46.3555 0.302576 46.4196 0C45.0208 1.63291 43.1093 2.73818 40.9643 3.00075C40.6347 3.04326 40.3005 3.06327 39.9617 3.06327C39.8541 3.06327 39.751 3.06076 39.648 3.05326C38.9223 2.22055 38.0571 1.53288 37.0979 1.02775C36.0288 0.457611 34.8338 0.122525 33.5724 0.0800142C33.4694 0.0725123 33.3665 0.0700172 33.2589 0.0700172C32.1898 0.0700172 31.1642 0.277565 30.2165 0.660161C29.9738 0.757685 29.738 0.862709 29.5068 0.985239C26.5034 2.52312 24.4247 5.85646 24.4247 9.71993C24.4247 10.5126 24.514 11.2828 24.6765 12.018C23.7563 11.978 22.8452 11.8805 21.9524 11.7354C21.6662 11.6854 21.38 11.6329 21.0962 11.5729C18.8184 11.1103 16.646 10.3151 14.6269 9.23481C12.8207 8.26957 11.1358 7.07927 9.60435 5.69392C8.31552 4.53363 7.1366 3.2383 6.08356 1.82295C6.03777 1.76294 5.99191 1.70042 5.94842 1.64041C5.88661 1.74294 5.82938 1.84546 5.77673 1.95299C5.0396 3.36084 4.62295 4.98874 4.62295 6.72418C4.62295 6.77669 4.62301 6.8342 4.6253 6.88672C4.64361 8.18704 4.8954 9.42485 5.34638 10.5501C5.53867 11.0503 5.77212 11.5229 6.03996 11.9705C6.82974 13.2983 7.90802 14.4036 9.18082 15.1688C9.23805 15.2088 9.29758 15.2413 9.3571 15.2713C9.26553 15.2913 9.17162 15.3088 9.07776 15.3188C8.81679 15.3563 8.54666 15.3763 8.27654 15.3763C6.92132 15.3763 5.65997 14.9137 4.62753 14.126C4.62066 14.2085 4.62071 14.2936 4.62071 14.3786C4.62071 17.1343 5.67834 19.6199 7.37236 21.3728C8.69095 22.7482 10.3964 23.6709 12.2918 23.941C11.6097 24.2136 10.8726 24.3611 10.1057 24.3611C9.27469 24.3611 8.47803 24.1885 7.75006 23.871C8.83515 27.7244 12.0698 30.5501 15.9249 30.6752C13.5693 33.3483 10.2613 35.0087 6.60087 35.0087C4.32538 35.0087 2.18728 34.3661 0.333008 33.2408C4.79012 37.4544 10.6024 40 16.9596 40C31.0085 40 42.3951 27.5619 42.3951 12.2155C42.3951 11.3703 42.3608 10.5351 42.2921 9.70992C44.6157 8.70717 46.4585 6.65916 47.3307 4.09102L47.333 4.08852Z" fill="white"/>
</svg>
