<svg width="24" height="24" viewBox="0 0 24 24" fill="none" xmlns="http://www.w3.org/2000/svg">
<path d="M17.903 18.7939C17.0089 16.4026 14.7033 14.7 12 14.7C9.29674 14.7 6.99114 16.4026 6.09705 18.7939M17.903 18.7939C19.8004 17.1439 21 14.712 21 12C21 7.02944 16.9706 3 12 3C7.02944 3 3 7.02944 3 12C3 14.712 4.19956 17.1439 6.09705 18.7939M17.903 18.7939C16.3228 20.1681 14.2585 21 12 21C9.74147 21 7.67724 20.1681 6.09705 18.7939" stroke="black" stroke-width="2" stroke-linejoin="round"/>
<circle cx="2.7" cy="2.7" r="2.7" transform="matrix(1 0 0 -1 9.30029 12.0002)" stroke="black" stroke-width="2" stroke-linejoin="round"/>
</svg>
